<?xml version="1.0" standalone="no"?> <!DOCTYPE svg PUBLIC "-//W3C//DTD SVG 1.0//EN" "http://www.w3.org/TR/2001/REC-SVG-20010904/DTD/svg10.dtd" > <svg xmlns="http://www.w3.org/2000/svg" width="100%" height="100%">
<defs >
<font id="Mickey" horiz-adv-x="624" ><font-face
    font-family="Mickey"
    units-per-em="1000"
    panose-1="0 0 4 0 0 0 0 0 0 0"
    ascent="810"
    descent="-200"
    alphabetic="0" />
<missing-glyph horiz-adv-x="500" d="M63 0V800H438V0H63ZM125 63H375V738H125V63Z" />
<glyph unicode=" " glyph-name="space" horiz-adv-x="534" />
<glyph unicode="!" glyph-name="exclam" horiz-adv-x="322" d="M113 210Q141 210 160 197Q172 189 193 163T219 130Q229 113 229 89Q229 51 202 24T136 -4Q108 -4 89 10Q77 18 56 44T29 77Q20 93 20 117Q20 155 47 182T113 210ZM216 264Q156 263 79 253L77 294L42
290Q29 501 14 805Q128 785 239 795L235 755L276 758Q253 594 216 264ZM113 168Q89 168 76 153T62 117Q62 96 75 81T113 66Q137 66 150 81T164 117Q164 138 151 153T113 168ZM141 342Q158 478 192 751Q124 750 58 756Q71 512 81 337L141 342Z" />
<glyph unicode="&quot;" glyph-name="quotedbl" horiz-adv-x="672" d="M612 603Q623 580 623 557Q623 493 546 457L323 294L259 365L266 377L236 410L379 626Q392 753 457 753Q517 753 580 665Q587 650 596 629Q600 624 602 621T612 603ZM287 686Q311 658 311
624Q311 576 266 532L106 307L23 352L30 381L0 398L66 648Q58 685 58 714Q58 800 127 800Q181 800 245 750Q245 749 249 746Q280 720 287 686ZM227 719Q225 721 224 721Q218 726 195 739Q150 764 126 764Q93 764 93 716Q93 690 102 648L41 416L73 398L217 601Q253
636 253 669Q253 697 227 719ZM558 634Q555 641 551 646T530 672Q486 719 461 719Q423 719 413 615L280 414L305 388L506 534Q565 561 565 603Q565 618 558 634Z" />
<glyph unicode="#" glyph-name="numbersign" horiz-adv-x="640" d="M486 132L482 65L330 54L334 111L284 108L280 50L128 39L132 97L65 92L66 102H65L70 159L3 155L14 306L81 311L84 361L17 357L28 508L95 513L100 580L251 591L247 533L297 537L301 594L453 605L449
548L516 553L515 542H516L512 485L579 490L568 338L501 333L497 283L564 288L553 136L486 132ZM391 217L458 222L464 303L397 298L405 419L472 423L478 505L411 500L416 567L334 562L330 494L209 486L214 553L132 547L128 480L61 476L55 394L122 399L114 278L46
274L41 192L108 197L103 130L184 136L189 203L310 211L305 144L386 150L391 217ZM324 413L315 293L195 284L203 405L324 413Z" />
<glyph unicode="$" glyph-name="dollar" horiz-adv-x="729" d="M597 642Q642 626 663 590L654 580Q678 561 690 547Q636 489 558 429Q532 463 521 463Q509 463 507 385Q504 284 486 228Q455 135 373 105Q360 70 338 1Q271 10 136 28Q149 52 153 65L109 71L121
96Q90 101 50 113L44 150L23 157Q14 222 -4 352Q-1 351 82 331Q130 320 157 320Q237 320 240 423Q243 515 263 568Q290 644 357 673Q375 717 409 805Q473 794 601 771L587 735L628 727L597 642ZM43 301L58 188Q111 174 192 178Q180 148 166 103L283 87Q294 118
315 182Q387 191 414 243Q434 280 434 354Q434 368 433 395Q433 421 433 434Q433 508 461 527Q478 539 497 539Q518 539 535 526L607 590Q560 628 510 625Q522 664 548 741L434 759Q418 721 389 643Q306 613 290 517Q282 438 275 360Q257 283 163 283Q115 283 43
301Z" />
<glyph unicode="%" glyph-name="percent" horiz-adv-x="1202" d="M1155 218Q1155 109 1078 46Q1008 -11 905 -11Q793 -11 715 56Q629 131 637 256Q597 196 464 -2Q287 -2 216 4Q240 39 240 39Q240 40 197 44L387 325Q329 297 266 297Q158 297 81 368Q0 442 0 556Q0
668 81 735Q153 795 258 795Q369 795 443 727Q526 650 518 519Q581 611 703 797Q719 792 911 747Q893 719 893 718Q893 716 930 707L767 455Q832 489 899 489Q1006 489 1080 413T1155 218ZM1092 257Q1092 443 897 443Q794 443 732 378Q678 321 678 245Q678 169
725 122Q778 69 879 69Q988 69 1047 138Q1092 191 1092 257ZM844 720L721 748Q625 602 272 80Q370 75 421 74Q529 232 844 720ZM261 754Q133 754 72 657Q14 566 58 477Q106 380 243 380Q369 380 428 477Q484 567 440 657Q392 754 261 754ZM888 344Q924 344 945
318T966 254Q966 216 945 190Q922 161 882 161Q845 161 824 187T803 250Q803 288 825 316T888 344ZM251 659Q288 659 310 630Q330 605 330 568Q330 530 310 504Q286 475 246 475Q209 475 187 503Q167 528 167 565Q167 603 188 629Q211 659 251 659ZM924 261Q917
264 909 264Q887 264 876 247T866 206Q873 202 882 202Q929 202 924 261ZM288 575Q281 578 272 578Q250 578 240 561T230 521Q237 517 246 517Q293 517 288 575Z" />
<glyph unicode="&amp;" glyph-name="ampersand" horiz-adv-x="798" d="M107 452Q51 495 51 588Q51 685 123 744Q189 799 289 801Q385 802 471 721T558 544Q558 479 511 428Q601 364 616 272Q662 234 757 160Q728 131 669 89Q604 42 579 20Q560 43 518 65Q461 2
358 2Q231 2 118 85Q0 171 0 277Q0 372 107 452ZM475 167Q492 153 544 110Q582 138 657 193Q615 220 536 279Q538 287 538 294Q538 346 493 394T398 451Q474 511 474 595Q474 663 425 710Q372 760 289 759Q205 758 148 706T90 588Q90 499 195 455Q44 376 44 276Q44
198 129 137Q211 79 308 79Q424 79 475 167ZM292 402Q332 402 355 374T378 307Q378 269 356 243Q332 214 290 214Q249 214 225 243Q204 269 204 306Q204 345 227 373T292 402ZM289 482Q255 482 234 508Q215 531 215 564Q215 596 235 619T293 643Q329 643 348 620T368
566Q368 532 348 509Q326 482 289 482ZM294 524Q294 563 326 566Q326 528 294 524ZM334 324Q336 315 336 307Q336 283 322 268T284 256Q282 263 282 270Q282 294 296 310T334 324Z" />
<glyph unicode="&apos;" glyph-name="quotesingle" horiz-adv-x="426" d="M355 650Q370 623 370 596Q370 538 303 497L95 311L23 374L35 397L0 428L121 661Q122 797 194 797Q252 797 320 721Q322 718 331 704Q343 684 346 663Q351 657 355 650ZM301 687Q297 693
293 698T269 722Q223 763 197 763Q156 763 156 656V652L43 436L71 411L259 580Q312 611 312 650Q312 668 301 687Z" />
<glyph unicode="(" glyph-name="parenleft" horiz-adv-x="468" d="M422 100L302 -10L264 11L258 5Q134 66 67 176Q4 279 4 402Q4 526 68 633Q136 746 257 810L285 785L302 794L416 689Q299 623 254 502Q210 385 252 274Q297 156 422 100ZM305 711L252 761Q151
699 98 603T44 400Q44 296 95 207Q149 112 251 54L308 107Q230 160 188 242Q148 321 148 410Q148 498 187 576Q228 658 305 711Z" />
<glyph unicode=")" glyph-name="parenright" horiz-adv-x="477" d="M139 12L121 2Q54 71 5 107Q124 173 170 293Q214 409 171 520Q126 638 0 696Q75 757 120 806L160 784L165 789Q289 727 357 617Q420 514 420 391Q420 268 356 162Q288 49 166 -14L139 12ZM128
757L71 704Q148 651 190 568Q230 489 230 400Q230 312 192 235Q151 154 75 102L128 52Q227 112 282 210Q335 304 335 410Q335 514 283 604Q229 699 128 757Z" />
<glyph unicode="*" glyph-name="asterisk" horiz-adv-x="645" d="M525 498L588 329L525 310L565 297L534 145L397 210L382 92Q325 95 226 107L207 111Q216 137 223 159Q186 163 168 166L140 151L101 222L80 211L10 338L82 370L86 379L11 407L84 555L209 495L231
624L400 598L387 549L438 542Q452 550 465 558L494 480Q511 489 525 498ZM447 506Q403 482 317 429L356 570L259 584L235 443L100 509L59 427L187 378L59 321L94 259L227 330Q217 286 193 198Q229 192 291 189L309 322L448 255L465 333L349 372L482 411L447 506Z"
/>
<glyph unicode="+" glyph-name="plus" horiz-adv-x="608" d="M554 362L544 160L408 151L397 38L195 24L200 77L138 73L143 134L57 125L59 180L-1 174L10 376L160 387L172 504L370 516L363 464L428 468L419 405L497 410L494 358L554 362ZM460 373L315 364L330 479L204
471L192 354L43 343L36 212L186 227L176 110L307 119L318 232L453 241L460 373Z" />
<glyph unicode="," glyph-name="comma" horiz-adv-x="420" d="M32 -78L5 -53Q13 -36 66 57Q107 129 118 164Q121 175 125 212Q129 241 139 260Q159 295 195 295Q247 295 301 232T356 111Q356 86 344 69Q335 56 228 -40Q99 -155 95 -159Q71 -137 24 -94L32 -78ZM56
-43L76 -61Q132 -12 189 36Q271 106 290 133Q298 144 298 155Q298 172 278 194Q224 256 199 256Q173 256 159 154Q112 65 56 -43Z" />
<glyph unicode="-" glyph-name="hyphen" horiz-adv-x="625" d="M549 119L62 85L65 149L2 145L12 347L499 381L496 316L559 321L549 119ZM456 212L462 343L45 314L39 183L456 212Z" />
<glyph unicode="." glyph-name="period" horiz-adv-x="282" d="M95 214Q124 214 143 201Q155 192 176 167T202 134Q212 117 212 93Q212 55 185 28T118 0Q90 0 71 14Q59 22 38 47T12 81Q2 97 2 121Q2 159 29 186T95 214ZM95 172Q71 172 58 157T45 121Q45 100 58
85T95 70Q119 70 132 85T146 121Q146 142 133 157T95 172Z" />
<glyph unicode="/" glyph-name="slash" horiz-adv-x="711" d="M7 32Q27 61 269 413Q427 644 523 800Q604 783 737 749L718 720L759 710Q524 348 278 -20Q275 -22 257 -22Q125 -22 29 -7Q50 24 50 25Q50 25 7 32ZM668 722L543 752Q497 681 82 66Q169 61 235 60Q324
189 453 390Q650 694 668 722Z" />
<glyph unicode="0" glyph-name="zero" horiz-adv-x="723" d="M665 402Q668 241 589 129Q508 14 376 4Q244 -6 152 89Q73 143 32 244Q-4 332 -4 439Q-4 583 59 678Q132 791 277 805Q291 807 305 807Q419 807 506 719Q577 669 620 583T665 402ZM579 442Q577 573
497 671T304 769Q173 769 100 668Q37 579 37 443Q37 413 40 382Q55 243 134 160T328 85Q440 94 511 193T579 442ZM440 422Q445 353 412 311T326 263Q201 250 180 394Q176 420 176 444Q176 576 280 589Q292 591 303 591Q369 591 405 538Q435 494 440 422ZM377 508Q357
514 341 514Q300 514 279 479Q261 448 261 400Q261 345 282 306Q300 301 315 301Q357 301 379 336Q400 368 400 416Q400 469 377 508Z" />
<glyph unicode="1" glyph-name="one" horiz-adv-x="464" d="M105 531Q68 577 -7 669Q26 685 302 808L306 753L355 775Q379 471 418 23L199 4L196 41L146 37L105 531ZM143 540L182 80Q188 80 323 91Q292 440 267 749L55 655Q82 621 139 551L143 546V540Z" />
<glyph unicode="2" glyph-name="two" horiz-adv-x="806" d="M-3 72Q137 170 234 264Q393 417 393 518Q393 538 387 555Q375 557 362 557Q316 557 212 524L185 574L157 565Q121 635 57 748Q195 803 322 803Q489 803 594 716T699 499Q699 371 593 250L707 247L696
207L761 206Q741 137 701 0L51 31L101 66L-3 72ZM117 108L616 84Q629 125 652 206Q545 209 460 216L420 218L446 249Q497 311 549 373Q595 439 602 526Q607 589 567 653Q517 733 419 758Q297 789 117 726Q154 660 178 615Q258 638 311 638Q441 638 434 500Q430
416 315 289Q232 197 117 108Z" />
<glyph unicode="3" glyph-name="three" horiz-adv-x="657" d="M496 450Q600 388 600 256Q600 239 598 219Q589 107 493 54Q419 12 285 3Q260 1 77 0L78 35L29 34Q29 106 36 249Q153 244 145 244Q283 244 273 293Q222 294 131 259L122 308L84 294Q73 361 50 495Q93
501 136 507Q185 517 216 537Q182 532 90 511L78 554L42 545Q18 628 0 731Q103 803 228 803Q353 803 446 735T539 571Q539 509 496 450ZM74 207Q73 199 71 75Q186 76 220 78Q306 83 367 100Q441 121 480 177Q515 227 515 291Q515 351 484 397T403 452L394 491Q444
514 444 581Q444 649 392 701Q333 762 237 762Q150 762 46 709Q57 647 71 594Q129 607 174 607Q272 607 272 559Q272 530 229 503Q181 473 98 460L114 348Q173 368 221 368Q317 368 315 283Q312 204 157 204Q145 204 74 207Z" />
<glyph unicode="4" glyph-name="four" horiz-adv-x="780" d="M28 220L0 222L23 415Q138 543 361 804Q448 796 621 786L618 749H645Q642 714 623 421Q667 417 706 423L699 382L730 387Q721 327 712 267Q700 196 684 149L601 152Q598 65 589 0Q480 3 356 15L360
50L332 52Q338 100 342 164L24 185L28 220ZM414 608Q410 468 401 388Q344 393 248 398Q347 516 414 608ZM377 89L529 79Q538 184 536 239Q577 228 630 227Q638 268 657 379Q624 380 552 388Q560 507 577 747Q489 752 379 761Q244 604 62 398Q60 378 45 260Q158
251 385 238Q384 168 377 89Z" />
<glyph unicode="5" glyph-name="five" horiz-adv-x="682" d="M118 244L58 89Q139 81 198 81Q514 81 547 327Q549 342 549 356Q549 514 313 558Q317 582 329 623L517 608L529 732L157 759L135 474Q364 445 353 334Q346 265 280 247Q244 237 118 244ZM499 530Q630
433 630 310Q630 295 628 280Q589 -1 236 -1Q164 -1 67 10L41 13L55 48L0 54L91 287Q92 287 138 283Q175 279 200 279Q312 279 312 341Q312 348 310 356Q259 383 130 397L134 433L90 438Q98 560 121 803L574 770L570 732L614 728L595 523L499 530Z" />
<glyph unicode="6" glyph-name="six" horiz-adv-x="656" d="M523 474Q602 378 602 265Q602 154 528 80Q450 1 321 0Q235 0 187 22T84 110Q4 210 4 338Q4 476 94 609Q181 739 312 804Q361 753 467 657L459 653L506 610Q475 597 421 564Q465 544 523 474ZM397 667L304
755Q202 699 128 567T54 312Q54 214 106 156Q165 90 283 87Q395 83 465 159Q529 228 529 325Q529 417 469 478Q401 547 282 546Q332 634 397 667ZM398 331Q398 278 369 249T298 219Q255 219 226 249Q193 283 195 340Q196 383 226 408T297 433Q338 433 366 408Q398
380 398 331ZM358 342Q344 345 332 345Q273 345 273 289Q273 276 276 262Q288 257 299 257Q327 257 344 283T358 342Z" />
<glyph unicode="7" glyph-name="seven" horiz-adv-x="723" d="M158 156Q212 133 317 97Q391 267 465 437Q572 686 588 758Q327 758 55 759L106 602Q198 602 382 601Q275 395 158 156ZM99 560L74 561Q48 641 -3 802L643 800L630 753L682 754Q640 599 541 372Q400
48 380 -2Q272 33 258 38Q189 63 141 92L152 113L103 138Q144 226 290 514Q144 514 113 515L99 560Z" />
<glyph unicode="8" glyph-name="eight" horiz-adv-x="702" d="M646 253Q646 128 556 60Q476 0 353 0Q217 0 114 68Q3 142 3 254Q3 308 35 361Q64 409 110 443Q52 488 52 585Q52 690 127 750Q195 804 296 804Q409 804 491 741Q581 671 581 558Q581 474 540 433Q589
404 617 357T646 253ZM402 446Q499 488 499 579Q499 650 442 706Q382 765 299 765Q211 764 150 709T89 584Q89 491 199 446Q44 367 44 250Q44 171 117 117Q193 60 313 60Q439 60 511 137Q580 211 556 300Q529 397 402 446ZM379 561Q379 521 356 499T299 476Q267
476 245 500T222 558Q222 593 243 617T303 642Q334 642 355 623Q379 601 379 561ZM390 292Q390 246 364 221T300 196Q263 196 237 222T211 289Q211 330 235 360T302 390Q338 390 364 364T390 292ZM335 580Q308 573 308 541Q308 529 313 520Q338 529 338 561Q338
571 335 580ZM337 329Q297 322 297 272Q297 250 309 235Q350 241 350 290Q350 313 337 329Z" />
<glyph unicode="9" glyph-name="nine" horiz-adv-x="704" d="M650 453Q623 309 484 176Q361 59 208 1L194 -4L5 210Q117 247 176 287Q122 314 78 363Q5 448 5 539Q5 646 96 723T311 800Q463 800 576 677Q619 630 636 598Q656 559 656 512Q656 486 650 453ZM533
666Q454 761 311 761Q198 761 120 690Q46 623 46 536Q46 463 103 412Q168 354 291 338Q202 239 77 192L165 92Q294 144 423 269Q578 419 578 546Q578 612 533 666ZM417 528Q409 453 318 439Q272 436 237 457Q196 482 196 531Q196 542 198 554Q216 654 324 647Q418
641 418 547Q418 538 417 528ZM376 558Q364 560 353 560Q319 560 298 541Q277 519 279 483Q297 478 313 480Q384 489 376 558Z" />
<glyph unicode=":" glyph-name="colon" horiz-adv-x="272" d="M92 272Q121 272 140 259Q152 251 173 225T199 192Q209 175 209 152Q209 113 182 86T116 59Q87 59 68 72Q56 80 35 106T9 139Q-1 156 -1 179Q-1 218 26 245T92 272ZM96 610Q124 610 143 596Q155 588
176 562T202 529Q212 513 212 489Q212 451 185 424T119 396Q91 396 72 409Q60 417 38 443T12 476Q3 493 3 517Q3 555 30 582T96 610ZM92 230Q69 230 56 215T42 179Q42 158 55 143T92 128Q116 128 129 143T143 179Q143 200 130 215T92 230ZM96 568Q72 568 59 553T45
517Q45 496 58 481T96 465Q120 465 133 480T146 517Q146 537 133 552T96 568Z" />
<glyph unicode=";" glyph-name="semicolon" horiz-adv-x="396" d="M198 603Q227 603 246 590Q258 582 279 556T305 523Q315 506 315 482Q315 444 288 417T222 389Q193 389 174 403Q162 411 141 437T115 470Q105 486 105 510Q105 548 132 575T198 603ZM28 -84L0
-59Q9 -42 62 50Q103 123 114 158Q117 169 121 206Q125 235 135 254Q155 289 190 289Q242 289 297 226T352 105Q352 80 340 63Q331 50 224 -46Q95 -162 91 -165Q67 -143 20 -100L28 -84ZM198 561Q175 561 162 546T148 510Q148 489 161 474T198 459Q222 459 235
474T249 510Q249 531 236 546T198 561ZM52 -49L71 -67Q128 -18 185 30Q267 99 286 127Q293 138 293 149Q293 166 274 188Q220 250 195 250Q168 250 155 148Q108 59 52 -49Z" />
<glyph unicode="=" glyph-name="equal" horiz-adv-x="638" d="M561 261L551 59L63 25L66 89L3 85L13 286L501 321L498 256L561 261ZM575 555L565 353L77 319L80 383L17 379L27 580L515 615L512 550L575 555ZM464 283L47 254L40 122L457 152L464 283ZM478 577L61
548L54 416L471 446L478 577Z" />
<glyph unicode="?" glyph-name="question" horiz-adv-x="549" d="M206 213Q235 213 254 200Q265 192 287 166T313 133Q322 116 322 93Q322 55 295 28T229 0Q201 0 182 13Q170 21 149 47T123 80Q113 97 113 120Q113 159 140 186T206 213ZM268 578Q219 569 162 524L137
562L118 547L11 708Q53 747 121 770T259 793Q349 793 410 757Q480 716 496 638Q504 604 504 567Q504 413 396 391Q320 376 320 305Q320 293 329 226Q302 230 270 231Q248 231 210 231Q168 230 151 230V254H107Q106 364 106 367Q109 450 125 469Q132 477 208 524Q274
563 268 578ZM206 172Q182 172 169 157T156 120Q156 100 169 85T206 69Q230 69 243 84T257 120Q257 141 244 156T206 172ZM148 295Q216 297 237 296Q235 312 235 326Q235 435 345 456Q377 462 399 504T421 599Q421 667 382 709Q335 758 244 753Q140 747 67 700L129
606Q189 643 237 643Q272 643 292 625T312 579Q312 549 287 525Q270 509 220 484T161 448Q145 429 148 295Z" />
<glyph unicode="A" glyph-name="A" horiz-adv-x="869" d="M489 770L470 738L429 802L4 93L75 74L67 58L301 -4L379 135L590 132Q631 74 664 25L695 36Q714 17 730 -5L937 60L489 770ZM588 207H299L224 77L67 120Q246 421 431 722L815 117L681 76Q679 78 588 207ZM442
492L340 309L559 310L442 492ZM468 389Q479 376 494 352H449Q456 365 468 389Z" />
<glyph unicode="B" glyph-name="B" horiz-adv-x="721" d="M657 212Q645 16 350 -4Q334 -5 314 -5Q219 -5 51 17Q55 32 54 52Q27 56 3 61L53 781Q187 800 294 800Q533 800 586 721Q657 676 653 601Q649 538 620 487Q595 443 568 433Q621 386 640 340Q661 290 657
212ZM565 255Q570 275 570 293Q570 352 531 395Q499 432 457 442Q439 447 386 459Q478 480 524 531Q567 579 562 645Q553 760 335 762Q243 763 98 747L53 96Q168 82 263 82Q285 82 301 83Q533 98 565 255ZM415 625Q417 584 380 554T280 524Q265 524 249 526L259
680Q308 691 343 687Q412 680 415 625ZM404 308Q399 234 349 216Q319 205 225 212L237 392Q259 395 280 395Q335 395 368 376Q407 353 404 308ZM361 597H354L348 596V585Q356 590 361 597ZM359 313Q344 314 324 312L321 257Q329 257 335 259Q358 266 359 310V313Z"
/>
<glyph unicode="C" glyph-name="C" horiz-adv-x="910" d="M764 745L682 492Q648 497 617 497Q514 497 457 452Q410 415 410 368Q410 360 411 354Q424 336 457 336Q528 336 664 408L700 336Q707 338 738 346L866 87Q527 -3 511 -3Q361 -3 236 81Q116 120 52 234Q1
324 1 424Q1 438 3 450Q17 589 120 679Q260 801 538 801Q608 801 686 793Q688 793 688 790Q688 789 676 751Q710 744 764 745ZM49 445Q45 316 121 222Q217 103 407 103Q445 103 486 108Q592 120 729 172L640 353Q527 298 438 298Q334 298 300 381Q289 408 289 433Q289
506 367 553T571 595L632 764Q594 766 558 766Q292 766 156 655Q52 569 49 445Z" />
<glyph unicode="D" glyph-name="D" horiz-adv-x="865" d="M426 756Q581 723 660 679Q825 587 822 417Q819 208 609 93Q430 -5 172 -5Q119 -5 67 0L77 40Q47 39 2 38L60 799Q142 792 209 785Q370 768 426 756ZM118 743L68 81Q95 79 123 79Q352 79 515 166Q706 266
720 450Q726 520 678 579Q606 667 425 705Q329 726 118 743ZM459 421Q451 360 390 321T253 288L276 570Q364 570 412 537T461 442Q461 432 459 421ZM374 483L364 356Q408 381 414 427Q418 458 402 478Q389 481 374 483Z" />
<glyph unicode="E" glyph-name="E" horiz-adv-x="626" d="M3 90Q20 326 53 799Q307 773 448 773Q494 773 535 775L531 709L575 710Q570 644 564 513L467 520L466 503L508 499Q509 460 489 232L510 231L506 169L550 166Q546 109 540 -5Q314 4 44 26L48 87L3 90ZM50
131Q233 118 457 106L464 189Q395 194 257 204L269 336Q322 334 408 328Q413 393 423 524Q376 526 283 532Q289 610 285 639Q299 638 481 624L488 730Q347 734 94 751L50 131Z" />
<glyph unicode="F" glyph-name="F" horiz-adv-x="588" d="M45 50Q31 286 0 759Q162 769 483 799L486 740L525 745Q530 679 537 547L448 542L449 526L487 529Q493 434 503 246Q458 238 368 233Q370 161 382 17Q236 -1 86 -5L82 51L45 50ZM86 95Q184 99 292 110Q288
184 279 330Q370 333 415 338L404 535L266 526Q263 562 255 636Q296 634 450 643L441 750Q310 740 47 719Q60 511 86 95Z" />
<glyph unicode="G" glyph-name="G" horiz-adv-x="816" d="M90 150Q21 230 6 356Q3 378 3 401Q3 558 115 678T379 799Q501 799 608 711L628 694L619 686Q627 680 636 673L655 657L636 640Q602 609 503 494L492 482L477 488Q453 499 429 499Q376 499 338 452Q303
409 305 362Q306 329 317 303Q345 280 389 280Q439 280 465 302L405 341L366 365L386 372L377 378L338 402L381 418Q515 466 681 527L700 535L709 516Q713 506 717 493L727 497L736 480Q764 427 764 331Q764 198 691 117Q585 -2 406 -4Q189 -7 90 150ZM378 77Q538
80 630 184Q691 252 691 366Q691 426 675 478Q591 447 438 392Q471 370 514 343L526 337L525 323Q524 295 497 271T431 239Q409 235 389 235Q317 235 275 282Q235 326 233 398Q231 457 275 515Q326 582 398 582Q425 582 452 572Q522 653 560 692Q475 753 379 753Q247
753 147 649T47 403Q47 382 50 361Q68 218 159 144Q244 76 378 77Z" />
<glyph unicode="H" glyph-name="H" horiz-adv-x="901" d="M3 738Q149 748 262 761Q265 743 268 725Q295 728 321 731Q326 679 339 573L478 585Q475 648 459 774Q548 783 727 799L731 764Q761 767 786 768Q799 642 813 413Q829 165 839 58Q748 48 567 34L565 69Q535
66 508 65Q503 189 494 261Q489 261 379 250L399 19Q224 -1 126 -5L123 29Q94 27 67 26Q54 204 40 383Q24 594 3 738ZM51 698Q62 599 106 71Q178 74 294 87Q286 165 274 319Q358 328 525 341Q541 252 549 110Q610 116 733 128Q720 336 689 753Q629 747 509 735Q514
672 525 546Q430 539 241 521Q236 586 226 714L51 698Z" />
<glyph unicode="I" glyph-name="I" horiz-adv-x="571" d="M89 799Q204 791 432 776L429 734Q476 730 514 724Q492 456 422 -5Q309 4 82 15Q84 39 87 64Q40 66 0 67Q8 151 50 433Q83 660 89 799ZM131 750Q118 628 92 430Q58 179 50 111Q119 108 301 95Q357 500
383 736Q299 741 131 750Z" />
<glyph unicode="J" glyph-name="J" horiz-adv-x="654" d="M171 289Q203 316 216 336Q237 367 242 416L279 797L539 776Q539 762 538 741Q556 740 603 736L563 352Q549 205 443 110Q352 28 204 -7Q182 21 167 41L141 34L2 221Q43 234 75 246Q153 274 171 289ZM67
203Q97 162 157 82Q292 121 364 190Q446 269 458 397Q474 531 496 738Q440 743 317 752Q301 586 284 412Q274 301 193 253Q181 246 67 203Z" />
<glyph unicode="K" glyph-name="K" horiz-adv-x="839" d="M121 39Q98 39 57 34Q39 272 3 749Q96 757 276 768V727L344 730V635L476 802L530 748L543 766Q608 695 732 567Q683 516 599 426Q667 356 798 217L615 28L564 81L548 64L427 191L375 137L387 24Q326 16
124 -2L121 39ZM271 94Q272 114 263 209Q299 237 372 302Q416 265 548 124L675 255Q633 303 475 460Q518 510 608 607Q583 635 480 739Q400 633 242 418Q243 434 235 723Q123 718 47 711L95 79Q153 83 271 94Z" />
<glyph unicode="L" glyph-name="L" horiz-adv-x="666" d="M89 29Q64 275 3 766Q51 775 255 799L260 757L333 765Q351 623 383 337L496 352L506 310L573 317Q619 153 631 55Q475 40 167 -5L161 41L89 29ZM126 79Q199 90 315 103Q472 121 504 125Q490 200 463 304Q399
295 269 279Q265 374 247 515Q232 633 217 751Q161 745 50 731Q75 513 126 79Z" />
<glyph unicode="M" glyph-name="M" horiz-adv-x="1191" d="M278 783Q311 755 332 736Q339 749 351 776Q484 661 564 596L738 801Q746 789 770 761Q795 780 807 793Q1009 410 1154 108Q1032 71 883 25Q874 46 861 85Q842 80 808 69Q765 143 707 246Q678 207 632
145Q607 168 592 190Q578 171 550 135Q505 182 419 272L311 -2Q217 17 28 54Q34 67 43 89Q29 90 0 95Q141 433 278 783ZM296 712Q159 360 62 130L275 93Q316 181 394 361Q445 309 547 203Q593 260 680 378L828 121L1018 180Q852 520 737 734Q733 728 530 493Q458
570 296 712Z" />
<glyph unicode="N" glyph-name="N" horiz-adv-x="832" d="M111 802Q246 671 460 497Q470 570 493 715Q629 688 744 662L738 625L789 613Q728 216 682 -2L324 254Q304 153 293 80L46 115L53 156L0 163L111 802ZM137 724L45 194L216 170Q228 243 254 367Q303 331
611 111Q648 307 701 631L524 669Q513 587 489 425Q323 553 137 724Z" />
<glyph unicode="O" glyph-name="O" horiz-adv-x="916" d="M863 384Q863 246 770 135Q653 -5 441 -5Q281 -5 178 91Q94 136 47 217T0 399Q0 559 109 674Q227 799 417 799Q585 799 687 704Q863 611 863 384ZM747 435Q747 586 656 672Q567 755 417 755Q247 755 141
643Q45 541 45 399Q45 266 131 180Q221 90 370 90Q561 90 665 214Q747 312 747 435ZM543 440Q542 371 499 331Q460 295 403 295Q348 295 309 329Q266 366 266 428Q266 496 312 536Q353 573 412 573Q466 573 502 540Q543 504 543 440ZM492 478Q473 486 453 486Q413
486 383 457T352 388Q352 368 361 349Q382 338 404 338Q443 338 471 368T499 440Q499 459 492 478Z" />
<glyph unicode="P" glyph-name="P" horiz-adv-x="723" d="M402 35Q255 4 179 -4L172 36L131 31Q72 416 0 754Q258 801 362 799Q513 797 600 727Q680 662 680 563Q680 466 603 376Q519 278 367 222Q382 160 402 35ZM361 756Q268 758 50 719Q114 377 166 79L307
105Q293 165 272 285Q412 333 505 429Q595 521 595 608Q595 672 540 711Q479 754 361 756ZM405 563Q404 513 353 490Q322 475 259 468Q253 524 229 625Q276 634 310 634Q406 634 405 563ZM361 557Q347 557 329 555L334 528Q357 539 361 557Z" />
<glyph unicode="Q" glyph-name="Q" horiz-adv-x="860" d="M804 179L620 -1Q510 20 400 40Q289 64 191 125T50 249Q0 322 0 428Q0 591 118 699Q232 803 397 803Q562 803 678 701T795 457Q795 335 700 227L750 211L741 200L804 179ZM677 191L562 231Q702 356 702
505Q702 615 623 686Q539 762 397 762Q241 762 137 659Q39 562 39 432Q39 320 117 236Q205 141 370 107Q433 98 558 76Q606 118 677 191ZM517 464Q517 399 474 362Q436 328 380 328Q326 328 289 359Q248 394 248 452Q248 514 293 552Q335 586 392 586Q444 586 478
556Q517 523 517 464ZM460 510Q451 513 440 513Q403 513 372 483T341 416Q341 391 356 371Q369 367 382 367Q419 367 447 396T476 463Q476 489 460 510Z" />
<glyph unicode="R" glyph-name="R" horiz-adv-x="798" d="M738 428Q706 319 620 288L693 0Q526 -10 424 -5L417 38L388 39Q379 95 357 218L331 224Q312 139 279 28Q162 47 33 80L41 114L-3 124Q51 349 153 799Q393 751 451 734Q624 683 699 600Q748 546 748 489Q748
462 738 428ZM662 484Q667 502 667 518Q667 591 566 645Q491 686 358 716Q271 733 184 750L46 155L213 119Q237 203 241 217Q255 273 262 316L386 290L423 79Q495 79 604 83Q582 175 533 359Q593 377 618 401T662 484ZM439 581Q472 556 472 522Q472 494 450 475T389
457Q373 457 295 471Q308 555 327 622Q369 613 386 607Q419 597 439 581ZM428 517Q414 523 393 529Q389 514 386 499Q426 497 428 517Z" />
<glyph unicode="S" glyph-name="S" horiz-adv-x="779" d="M705 719L701 708L739 674L676 432Q660 451 634 492L611 490Q572 432 558 291Q543 147 511 94Q456 4 301 -2Q147 -8 86 7L82 46L52 51L21 326Q119 284 178 284Q269 284 291 397Q307 509 323 622Q357 756
471 790Q508 802 539 802Q614 802 705 719ZM214 243Q194 239 173 239Q126 239 76 255Q78 236 93 89Q151 84 266 87Q339 89 396 130Q442 161 456 196Q474 238 493 391Q501 457 510 492Q523 544 547 567Q566 584 588 584Q604 584 620 576Q642 662 654 705Q598 756
538 756Q512 756 484 748Q416 727 385 665Q362 620 354 538Q351 509 346 457Q334 364 315 323Q284 254 214 243Z" />
<glyph unicode="T" glyph-name="T" horiz-adv-x="711" d="M85 493L37 485Q24 560 3 711Q283 755 584 799L588 768L637 776Q649 703 670 556Q587 541 486 527Q527 237 563 28Q460 6 347 -5L343 23L295 18L222 483Q178 477 89 462L85 493ZM330 64Q404 74 462 84Q434
251 386 585Q479 598 570 614Q563 659 549 750Q269 705 50 674Q57 627 72 534Q132 542 252 561Q261 503 330 64Z" />
<glyph unicode="U" glyph-name="U" horiz-adv-x="819" d="M39 796Q126 781 301 754L294 721L345 713Q314 566 314 473Q314 403 333 367Q348 364 361 364Q446 364 446 521Q446 639 411 758Q566 772 667 791L679 744L711 750Q757 582 757 443Q757 259 675 135Q580
-8 406 -8Q258 -8 145 98Q38 199 10 348Q0 403 0 475Q0 613 39 796ZM673 448Q673 574 634 740Q564 729 469 719Q493 631 493 555Q493 503 484 448Q476 399 443 361Q407 318 360 318Q304 318 269 360T229 459Q227 491 227 527Q227 618 248 717L74 746Q45 566 45
475Q45 384 61 326Q78 263 126 193Q169 130 227 104Q279 81 361 81Q497 81 575 177Q673 298 673 448Z" />
<glyph unicode="V" glyph-name="V" horiz-adv-x="897" d="M443 493Q485 594 565 799Q644 774 800 723L794 711L861 688L534 -4L485 57L472 30Q445 64 238 328Q97 510 0 622Q75 668 225 760L261 710L287 726Q317 686 443 493ZM414 401Q337 521 215 705L61 613Q217
417 463 107Q579 351 743 699Q711 709 590 748Q507 537 450 404L435 368L414 401Z" />
<glyph unicode="W" glyph-name="W" horiz-adv-x="1091" d="M402 518L486 633L525 562L558 606L616 499Q671 589 774 774L841 737L846 747L1051 635Q987 524 858 314Q726 98 665 -7L613 53L593 19L495 135L360 10L331 78L288 37Q111 459 0 737Q79 755 236 796L251
754L307 769L402 518ZM211 747Q158 735 54 710Q154 463 302 106Q355 152 454 250Q541 142 586 88Q700 273 924 646Q855 683 791 719Q704 558 579 364Q516 495 481 559Q438 500 353 381Q300 504 211 747Z" />
<glyph unicode="X" glyph-name="X" horiz-adv-x="868" d="M208 395Q205 397 -6 546Q18 587 66 646Q126 719 142 743L184 710L198 729Q260 679 369 597Q410 647 451 697Q499 757 527 802L570 767L583 789Q644 741 765 644Q675 531 611 437Q684 374 831 249Q776
176 682 66L640 95L626 79Q590 105 430 214L256 -2L218 34L201 12Q117 88 33 175Q92 247 208 395ZM86 178Q146 119 196 71Q258 146 378 299Q459 244 619 133Q676 202 719 256Q617 343 503 443Q545 510 653 651L536 742Q476 671 364 523Q245 609 150 685Q116 643
49 557Q104 520 158 483Q222 438 262 401Q249 382 86 178Z" />
<glyph unicode="Y" glyph-name="Y" horiz-adv-x="884" d="M203 276Q135 404 0 659Q138 743 211 799L223 779L238 791Q278 726 387 526Q463 596 610 743L639 713L662 738Q725 672 855 545Q771 470 506 213Q494 141 475 -5Q370 14 339 19Q262 30 202 31L209 74L174
75Q178 96 203 276ZM226 116Q291 110 398 92Q407 151 424 269Q605 445 732 564Q655 636 610 679Q526 600 361 438Q308 538 198 734Q144 697 59 643Q125 524 248 283Q241 227 226 116Z" />
<glyph unicode="Z" glyph-name="Z" horiz-adv-x="766" d="M-3 119Q76 220 253 489Q149 501 97 511L102 558L69 563Q72 591 98 796Q344 771 694 730L668 683L722 677Q707 651 498 297L644 280L638 231L672 227Q664 148 644 -7Q338 20 25 66L59 110L-3 119ZM74 150Q349
115 579 91Q591 185 597 242Q556 247 375 271Q459 412 626 695Q354 726 134 750L115 599Q203 586 354 570Q226 362 74 150Z" />
<glyph unicode="\" glyph-name="backslash" horiz-adv-x="683" d="M496 9Q516 13 523 12Q526 9 536 -12Q579 -10 661 9Q754 31 759 32Q670 164 527 394Q336 700 299 758Q290 759 268 759Q255 780 243 800Q162 783 29 749Q249 397 496 9ZM98 722L223 752Q370 521
671 63Q633 56 544 48Q440 199 98 722Z" />
<glyph unicode="a" glyph-name="a" horiz-adv-x="702" d="M749 48L584 -4Q578 4 556 29L531 20Q505 60 472 106L304 108Q296 94 241 -3L53 46L60 59L3 74L343 642L376 590Q377 591 391 616L749 48ZM636 99Q572 202 345 559L69 102L175 73Q190 99 233 175H476L512
124V124Q513 123 549 72L636 99ZM447 248H272L354 393L447 248ZM395 281Q389 291 375 311Q370 301 360 281H395Z" />
<glyph unicode="b" glyph-name="b" horiz-adv-x="592" d="M525 169Q516 13 280 -3Q207 -8 41 14Q44 26 43 42Q22 45 3 49L42 625Q150 640 235 640Q426 640 469 577Q526 540 522 481Q519 431 496 390Q476 354 455 346Q497 309 512 272Q529 232 525 169ZM443 206Q446
220 446 234Q446 277 417 309Q393 337 363 344Q349 348 307 358L261 367Q346 386 383 408Q445 446 439 515Q433 600 250 600Q197 600 88 589L53 85Q146 75 200 75Q415 75 443 206ZM332 500Q334 467 304 443T224 419Q212 419 199 421L207 544Q247 552 275 550Q330
544 332 500ZM323 246Q319 188 279 173Q255 164 180 170L190 314Q207 316 224 316Q328 316 323 246ZM289 478L283 477H279L278 468Q285 472 289 478ZM287 251Q275 251 259 249L256 205Q263 206 268 207Q286 213 287 248V251Z" />
<glyph unicode="c" glyph-name="c" horiz-adv-x="744" d="M611 596L546 394Q518 397 494 397Q412 397 365 361Q328 332 328 294Q328 288 329 283Q339 268 366 268Q423 268 531 326L560 269Q566 271 591 277L693 69Q422 -2 409 -2Q289 -2 189 65Q93 96 42 187Q1
259 1 339Q1 350 2 360Q13 471 96 543Q208 641 431 641Q486 641 549 635Q550 634 550 632Q550 631 541 601Q568 595 611 596ZM387 96Q464 105 569 143L507 269Q421 228 350 228Q261 228 231 301Q221 325 221 348Q221 409 285 448T450 486L492 602Q257 612 140 523Q52
455 49 356Q46 257 104 184Q178 92 326 92Q355 92 387 96Z" />
<glyph unicode="d" glyph-name="d" horiz-adv-x="709" d="M341 605Q464 579 528 543Q660 469 658 333Q655 166 487 74Q344 -4 137 -4Q95 -4 54 0L62 32Q38 31 2 31L48 639Q158 630 341 605ZM202 231L221 456Q368 456 368 354Q368 294 314 258Q264 225 202 231ZM299
387L291 285Q326 304 331 341Q334 367 321 382Q311 385 299 387ZM65 74Q253 66 393 134Q555 212 566 360Q570 413 535 457Q479 524 338 555Q263 570 104 584L65 74Z" />
<glyph unicode="e" glyph-name="e" horiz-adv-x="519" d="M3 72Q16 261 43 639Q246 618 358 618Q395 618 428 620L425 567L460 568Q456 515 451 410L374 416L373 403L406 399Q407 368 392 186L408 184L405 135L440 133Q436 87 432 -4Q251 3 35 20L38 70L3 72ZM357
95L360 142Q305 146 195 154L206 279Q256 277 317 273Q321 319 328 410Q290 412 215 416Q221 488 216 521Q251 520 376 510L380 574Q272 577 85 590L51 114Q189 105 357 95Z" />
<glyph unicode="f" glyph-name="f" horiz-adv-x="484" d="M36 40Q25 229 0 607Q129 615 387 639L389 592L420 596Q424 543 430 438L358 434L359 420L389 423Q394 347 402 196Q366 190 294 187Q296 129 306 14Q188 -1 69 -4L66 41L36 40ZM223 97Q220 156 212 274Q249
275 322 279L314 417L205 410Q201 447 192 519Q241 517 349 524L344 589Q245 581 49 566Q58 406 78 87Q148 90 223 97Z" />
<glyph unicode="g" glyph-name="g" horiz-adv-x="663" d="M72 120Q2 201 2 321Q2 446 92 542T303 639Q401 639 486 569L502 555L495 549Q502 544 508 539L524 526L509 512Q482 487 402 395L394 385L382 391Q362 399 343 399Q301 399 270 361Q242 327 244 290Q245
263 254 243Q276 224 311 224Q351 224 372 241L324 273L293 292L309 298L302 303L271 322L305 334Q412 373 544 422L560 428L567 412Q570 405 574 395L581 398L589 384Q611 342 611 265Q611 159 553 93Q468 -2 325 -3Q151 -6 72 120ZM497 154Q543 205 543 293Q543
332 534 369Q525 366 373 311Q409 287 431 275L430 258Q429 224 394 201T312 178Q258 178 221 210Q178 248 176 318Q174 368 212 418Q255 476 318 476Q338 476 358 469Q404 522 433 552Q372 592 303 592Q202 592 125 512T48 323Q48 307 50 290Q64 180 134 123Q199
71 302 72Q426 74 497 154Z" />
<glyph unicode="h" glyph-name="h" horiz-adv-x="736" d="M2 590Q119 599 210 609Q212 595 214 580Q236 582 257 584Q260 543 272 458L383 468Q380 518 367 619Q438 627 582 639L585 611Q609 613 629 615Q642 425 671 46Q599 39 454 28L452 55Q428 53 406 52Q402
151 395 209Q391 208 303 200L319 15Q179 -1 101 -4L98 23Q75 22 53 21Q43 164 32 306Q19 476 2 590ZM94 67Q146 70 224 79Q218 141 208 264Q282 272 428 283Q443 205 449 99Q491 103 576 111Q566 271 542 592Q501 587 418 579Q422 529 431 428Q348 421 183 406Q179
457 172 560L52 550Q61 467 94 67Z" />
<glyph unicode="i" glyph-name="i" horiz-adv-x="479" d="M71 639Q163 633 346 621L343 587Q380 584 411 579Q394 365 337 -4Q247 3 65 12Q67 31 70 51Q32 53 0 54Q6 120 40 346Q66 528 71 639ZM51 98Q104 96 232 87Q275 396 295 580Q235 583 114 590Q93 426 51 98Z" />
<glyph unicode="j" glyph-name="j" horiz-adv-x="542" d="M137 231Q188 274 194 332L223 638L431 621Q431 610 431 593Q445 592 482 589L451 282Q439 164 354 88Q281 23 163 -5Q146 16 134 33L113 27L1 177Q34 187 60 197Q122 219 137 231ZM129 77Q339 140 356
319Q369 418 386 581Q343 585 263 591Q250 463 237 328Q229 235 159 194Q143 184 70 157Q89 130 129 77Z" />
<glyph unicode="k" glyph-name="k" horiz-adv-x="677" d="M96 32Q78 31 45 27Q31 218 2 599Q77 605 221 614V582L275 584V508L380 642L423 598L434 613Q486 556 585 454Q546 413 479 341Q533 285 638 174L492 22L451 65L438 51L342 153L300 110L309 19Q261 13
99 -1L96 32ZM199 172Q261 219 297 255Q342 216 438 114L526 204Q495 240 366 367Q400 408 472 486Q451 510 386 575Q330 491 183 305Q184 361 178 568Q102 564 48 560L85 74Q125 77 207 84Q206 109 199 172Z" />
<glyph unicode="l" glyph-name="l" horiz-adv-x="543" d="M71 23Q51 220 2 613Q41 620 204 639L208 606L267 612Q280 498 306 270L397 282L405 248L459 254Q495 122 504 44Q380 32 134 -4L129 33L71 23ZM391 109Q381 162 363 232Q311 225 206 212Q203 256 165
590Q127 586 52 576Q71 409 109 74Q203 86 391 109Z" />
<glyph unicode="m" glyph-name="m" horiz-adv-x="963" d="M223 626Q249 604 265 589Q271 599 281 621Q388 529 451 477L591 641Q597 631 616 609Q636 624 646 634Q807 328 923 86Q826 57 706 20Q700 37 689 68Q674 64 647 55Q612 114 565 197Q543 166 506 116Q485
134 473 152Q462 137 440 108Q404 145 335 218L249 -2Q173 13 22 43Q27 53 34 71Q23 72 0 76Q113 346 223 626ZM63 112L214 85Q248 159 311 308Q353 264 437 178Q474 225 545 321L667 109L801 150Q676 405 588 569Q533 506 424 380Q391 415 333 467Q262 531 241
551Q138 288 63 112Z" />
<glyph unicode="n" glyph-name="n" horiz-adv-x="675" d="M89 641Q197 537 368 397Q376 456 395 572Q503 551 595 529L590 500L632 491Q582 172 545 -1L259 203Q243 122 234 64L37 92L42 125L0 130L89 641ZM48 164L164 147Q174 203 196 310Q259 265 482 106Q510
256 549 497L427 523Q421 471 406 357L401 319Q258 430 116 559L48 164Z" />
<glyph unicode="o" glyph-name="o" horiz-adv-x="752" d="M690 308Q690 197 616 108Q522 -4 353 -4Q225 -4 142 73Q75 108 38 173T0 320Q0 447 87 539Q182 639 334 639Q468 639 549 563Q690 489 690 308ZM588 348Q588 465 519 529T334 594Q202 594 120 508Q46
429 46 320Q46 217 112 151Q181 82 296 82Q444 82 524 178Q588 253 588 348ZM434 352Q434 296 399 264Q368 236 322 236Q278 236 247 263Q213 293 213 342Q213 396 250 429Q283 458 329 458Q373 458 402 432Q434 403 434 352ZM393 382Q379 389 363 389Q330 389
306 366T282 310Q282 294 289 279Q306 270 323 270Q354 270 376 294T399 352Q399 367 393 382Z" />
<glyph unicode="p" glyph-name="p" horiz-adv-x="588" d="M321 28Q204 3 143 -3L138 29L105 25Q57 333 0 603Q206 641 289 639Q411 637 480 581Q544 530 544 450Q544 373 482 301Q415 223 294 177Q306 128 321 28ZM460 450Q466 469 466 486Q466 591 289 595Q214
597 52 567Q101 305 141 75L234 92Q223 139 206 235Q289 263 357 314Q439 377 460 450ZM324 451Q323 388 207 374Q202 419 183 500Q221 507 248 507Q325 507 324 451ZM289 446Q277 446 263 444L267 422Q286 431 289 446Z" />
<glyph unicode="q" glyph-name="q" horiz-adv-x="702" d="M643 143L496 0Q408 16 320 33T153 100T40 199Q0 257 0 342Q0 473 94 559Q185 642 317 642Q450 642 543 560T636 366Q636 268 560 182L600 169L592 160L643 143ZM524 149L430 181Q484 229 515 293T547
419Q547 499 494 546Q434 599 317 599Q196 599 117 521Q42 448 42 348Q42 261 102 196Q170 122 298 95Q347 88 443 71Q478 101 524 149ZM414 371Q414 319 379 289Q349 263 304 263Q261 263 231 288Q198 315 198 361Q198 411 235 441Q268 469 313 469Q355 469 383
445Q414 418 414 371ZM368 408Q360 410 352 410Q322 410 298 386T273 333Q273 313 285 297Q295 294 305 294Q335 294 358 317T381 371Q381 391 368 408Z" />
<glyph unicode="r" glyph-name="r" horiz-adv-x="655" d="M537 254Q519 239 496 230L555 0Q421 -8 339 -4L334 30L310 31Q303 76 286 174L265 179Q249 111 223 22Q129 38 27 64L33 91L-2 99Q41 279 122 639Q314 601 361 587Q499 547 560 480Q598 437 598 392Q598
356 581 317T537 254ZM520 390Q524 402 524 414Q524 490 368 541Q310 560 155 589L49 132L164 107Q193 209 201 265L318 241L347 73Q398 73 471 76Q453 149 414 294Q466 310 484 324Q506 343 520 390ZM351 465Q378 445 378 418Q378 396 360 381T311 366Q298 366
236 377Q246 444 262 498Q295 490 309 486Q335 477 351 465ZM343 413Q331 418 314 423Q311 412 309 399Q341 397 343 413Z" />
<glyph unicode="s" glyph-name="s" horiz-adv-x="621" d="M547 575L544 566L574 540L524 345Q512 361 490 393L472 392Q441 346 430 233Q418 117 392 76Q348 3 224 -2Q101 -6 52 5L48 36L25 41L0 261Q78 227 126 227Q198 227 216 317Q229 408 242 498Q269 605
360 632Q389 641 415 641Q474 641 547 575ZM55 191Q58 169 67 81Q116 78 196 80Q251 81 295 112Q328 135 339 162T368 320Q382 431 414 461Q440 485 472 474Q486 529 495 561Q456 595 409 595Q368 595 335 569T288 497Q270 436 270 365Q270 302 244 252Q213 193
156 184Q108 177 55 191Z" />
<glyph unicode="t" glyph-name="t" horiz-adv-x="592" d="M68 395L29 388Q19 448 2 569Q226 604 467 639L471 614L509 621Q519 562 536 445Q469 433 388 421Q422 189 450 23Q368 4 278 -4L274 19L236 14L177 386Q142 381 71 369L68 395ZM358 76Q336 209 297 477Q377
488 445 499Q440 529 430 588Q219 554 51 531L66 438Q114 445 210 461Q221 394 272 63Q319 69 358 76Z" />
<glyph unicode="u" glyph-name="u" horiz-adv-x="663" d="M31 637Q101 625 241 603L235 577L276 571Q251 452 251 379Q251 322 267 294Q278 291 289 291Q357 291 357 416Q357 512 329 606Q453 618 533 633L543 596L569 600Q605 466 605 354Q605 207 540 108Q464
-6 325 -6Q206 -6 116 78Q30 159 8 278Q0 322 0 380Q0 491 31 637ZM500 581Q450 574 388 567Q404 501 404 444Q404 402 397 359T362 282Q331 244 288 244Q239 244 206 283Q176 318 173 367Q171 393 171 422Q171 491 186 566L68 586Q46 452 46 380Q46 308 58 264Q72
215 109 160Q142 112 186 92Q225 74 289 74Q393 74 452 148Q529 242 529 359Q529 451 500 581Z" />
<glyph unicode="v" glyph-name="v" horiz-adv-x="730" d="M354 394Q388 476 452 639Q515 620 640 578L635 569L689 551L427 -4L388 46L378 24Q254 184 0 498Q60 534 180 608L209 568L229 580Q254 548 354 394ZM169 551L64 487Q178 344 368 105L581 553L478 586Q409
411 350 274Q290 367 169 551Z" />
<glyph unicode="w" glyph-name="w" horiz-adv-x="882" d="M322 415L389 506L420 449L446 485L493 399Q537 471 619 619L673 590L677 598L841 508Q736 337 532 -6L490 43L474 15L396 108L288 8L265 62L230 30Q89 367 0 590Q63 604 189 637L201 603L246 616L322
415ZM57 561Q134 371 246 102Q286 138 364 215Q398 172 468 87L725 513L637 562Q568 436 462 271Q437 324 384 428Q316 336 280 284Q231 399 162 586Q127 578 57 561Z" />
<glyph unicode="x" glyph-name="x" horiz-adv-x="706" d="M166 316Q164 317 -5 437Q14 469 53 517Q101 575 114 594L147 568L158 584Q208 543 295 478Q328 518 361 558Q399 605 422 642L456 614L466 631Q515 593 612 515Q540 425 489 350Q547 299 665 199Q621
141 545 52L512 76L501 63Q472 84 344 171L205 -1L174 27L161 10Q93 70 26 140Q73 198 166 316ZM156 72Q205 131 300 253Q365 209 493 120Q532 166 562 204Q483 270 389 353Q428 414 508 519L431 580Q383 523 294 404Q195 476 122 534Q99 505 53 448Q138 390 140
388Q189 353 223 322Q201 291 82 143Q122 104 156 72Z" />
<glyph unicode="y" glyph-name="y" horiz-adv-x="728" d="M162 221Q108 323 0 528Q110 594 169 639L178 623L191 633Q223 581 309 421Q370 477 488 594L511 571L529 590Q580 538 684 436Q617 376 405 171Q395 113 380 -4Q296 11 271 15Q210 24 161 25L167 59L139
60Q143 77 162 221ZM310 85Q317 130 329 220Q472 359 571 451Q520 498 488 529Q420 465 286 334Q244 414 155 573Q117 547 60 511Q112 418 209 228Q204 186 192 102Q239 97 310 85Z" />
<glyph unicode="z" glyph-name="z" d="M-3 95Q61 176 202 391Q119 401 78 409L82 446L55 451Q58 473 78 637Q275 617 555 584L534 547L578 541Q566 520 399 238L515 224L511 185L537 182Q531 118 515 -6Q270 16 20 53L47 88L-3 95ZM454 84Q462 145 467 185Q438
188 284 209Q351 322 484 548Q282 571 116 589L103 487Q170 478 300 464Q193 291 77 128Q282 102 454 84Z" />
</font>
</defs>
</svg>
